<mxfile host="app.diagrams.net" modified="2023-06-07T17:06:32.503Z" agent="Mozilla/5.0 (X11; Linux x86_64) AppleWebKit/537.36 (KHTML, like Gecko) Chrome/113.0.0.0 Safari/537.36" version="21.3.6" etag="CSpG7c8fuEmwLTg266pf" type="github">
  <diagram name="Page-1" id="xi4kqkPSv8pVqOHx3KJ_">
    <mxGraphModel>
      <root>
        <mxCell id="0" />
        <mxCell id="1" parent="0" />
      </root>
    </mxGraphModel>
  </diagram>
</mxfile>
